<svg width="187" height="29" viewBox="0 0 187 29" fill="none" xmlns="http://www.w3.org/2000/svg">
<path d="M0.555664 0.873047H8.6084C12.3441 0.873047 15.0407 1.41732 16.6982 2.50586C18.3682 3.5944 19.2031 5.3138 19.2031 7.66406C19.2031 9.2474 18.7949 10.5648 17.9785 11.6162C17.1621 12.6676 15.987 13.3294 14.4531 13.6016V13.7871C16.3581 14.1458 17.7559 14.8571 18.6465 15.9209C19.5495 16.9723 20.001 18.401 20.001 20.207C20.001 22.6439 19.1475 24.555 17.4404 25.9404C15.7458 27.3135 13.3831 28 10.3525 28H0.555664V0.873047ZM4.99023 12.0801H9.25781C11.1133 12.0801 12.4678 11.7894 13.3213 11.208C14.1748 10.6143 14.6016 9.6123 14.6016 8.20215C14.6016 6.92806 14.1377 6.00651 13.21 5.4375C12.2946 4.86849 10.835 4.58398 8.83105 4.58398H4.99023V12.0801ZM4.99023 15.6797V24.2705H9.70312C11.5586 24.2705 12.9564 23.918 13.8965 23.2129C14.849 22.4954 15.3252 21.3698 15.3252 19.8359C15.3252 18.4258 14.8428 17.3805 13.8779 16.7002C12.9131 16.0199 11.4473 15.6797 9.48047 15.6797H4.99023ZM24.7559 28V6.58398H29.2969V24.25H37.9834V28H24.7559ZM54.8291 28L53.2764 22.9023H45.4688L43.916 28H39.0234L46.582 6.49609H52.1338L59.7217 28H54.8291ZM52.1924 19.0938C50.7568 14.4746 49.9463 11.8623 49.7607 11.2568C49.585 10.6514 49.458 10.1729 49.3799 9.82129C49.0576 11.0713 48.1348 14.1621 46.6113 19.0938H52.1924ZM71.5283 10.0557C69.8193 10.0557 68.4961 10.7002 67.5586 11.9893C66.6211 13.2686 66.1523 15.0557 66.1523 17.3506C66.1523 22.126 67.9443 24.5137 71.5283 24.5137C73.0322 24.5137 74.8535 24.1377 76.9922 23.3857V27.1943C75.2344 27.9268 73.2715 28.293 71.1035 28.293C67.9883 28.293 65.6055 27.3506 63.9551 25.4658C62.3047 23.5713 61.4795 20.8564 61.4795 17.3213C61.4795 15.0947 61.8848 13.1465 62.6953 11.4766C63.5059 9.79688 64.668 8.5127 66.1816 7.62402C67.7051 6.72559 69.4873 6.27637 71.5283 6.27637C73.6084 6.27637 75.6982 6.7793 77.7979 7.78516L76.333 11.4766C75.5322 11.0957 74.7266 10.7637 73.916 10.4805C73.1055 10.1973 72.3096 10.0557 71.5283 10.0557ZM98.7891 28H93.6328L88.0225 18.9766L86.1035 20.3535V28H81.5625V6.58398H86.1035V16.3838L87.8906 13.8643L93.6914 6.58398H98.7305L91.2598 16.0615L98.7891 28ZM106.805 13.4902H109.885C111.951 13.4902 113.447 13.1068 114.375 12.3398C115.303 11.5729 115.767 10.4349 115.767 8.92578C115.767 7.39193 115.266 6.29102 114.264 5.62305C113.262 4.95508 111.753 4.62109 109.736 4.62109H106.805V13.4902ZM106.805 17.1641V28H102.37V0.873047H110.033C113.534 0.873047 116.125 1.52865 117.808 2.83984C119.49 4.15104 120.331 6.13021 120.331 8.77734C120.331 12.1543 118.575 14.5602 115.062 15.9951L122.725 28H117.678L111.184 17.1641H106.805ZM145.229 17.2627C145.229 20.8076 144.351 23.5322 142.593 25.4365C140.835 27.3408 138.315 28.293 135.034 28.293C131.753 28.293 129.233 27.3408 127.476 25.4365C125.718 23.5322 124.839 20.7979 124.839 17.2334C124.839 13.6689 125.718 10.9492 127.476 9.07422C129.243 7.18945 131.772 6.24707 135.063 6.24707C138.354 6.24707 140.869 7.19434 142.607 9.08887C144.355 10.9834 145.229 13.708 145.229 17.2627ZM129.6 17.2627C129.6 19.6553 130.054 21.457 130.962 22.668C131.87 23.8789 133.228 24.4844 135.034 24.4844C138.657 24.4844 140.469 22.0771 140.469 17.2627C140.469 12.4385 138.667 10.0264 135.063 10.0264C133.257 10.0264 131.895 10.6367 130.977 11.8574C130.059 13.0684 129.6 14.8701 129.6 17.2627ZM158.765 10.0557C157.056 10.0557 155.732 10.7002 154.795 11.9893C153.857 13.2686 153.389 15.0557 153.389 17.3506C153.389 22.126 155.181 24.5137 158.765 24.5137C160.269 24.5137 162.09 24.1377 164.229 23.3857V27.1943C162.471 27.9268 160.508 28.293 158.34 28.293C155.225 28.293 152.842 27.3506 151.191 25.4658C149.541 23.5713 148.716 20.8564 148.716 17.3213C148.716 15.0947 149.121 13.1465 149.932 11.4766C150.742 9.79688 151.904 8.5127 153.418 7.62402C154.941 6.72559 156.724 6.27637 158.765 6.27637C160.845 6.27637 162.935 6.7793 165.034 7.78516L163.569 11.4766C162.769 11.0957 161.963 10.7637 161.152 10.4805C160.342 10.1973 159.546 10.0557 158.765 10.0557ZM186.025 28H180.869L175.259 18.9766L173.34 20.3535V28H168.799V6.58398H173.34V16.3838L175.127 13.8643L180.928 6.58398H185.967L178.496 16.0615L186.025 28Z" fill="#BBBBBB"/>
</svg>
