<svg width="145" height="30" viewBox="0 0 145 30" fill="none" xmlns="http://www.w3.org/2000/svg">
<path d="M0.415039 23V1.67188H7.88574C10.4736 1.67188 12.4365 2.16992 13.7744 3.16602C15.1123 4.15234 15.7812 5.60254 15.7812 7.5166C15.7812 8.56152 15.5127 9.48438 14.9756 10.2852C14.4385 11.0762 13.6914 11.6572 12.7344 12.0283C13.8281 12.3018 14.6875 12.8535 15.3125 13.6836C15.9473 14.5137 16.2646 15.5293 16.2646 16.7305C16.2646 18.7812 15.6104 20.334 14.3018 21.3887C12.9932 22.4434 11.1279 22.9805 8.70605 23H0.415039ZM4.80957 13.7129V19.4697H8.57422C9.60938 19.4697 10.415 19.2256 10.9912 18.7373C11.5771 18.2393 11.8701 17.5557 11.8701 16.6865C11.8701 14.7334 10.8594 13.7422 8.83789 13.7129H4.80957ZM4.80957 10.6074H8.06152C10.2783 10.5684 11.3867 9.68457 11.3867 7.95605C11.3867 6.98926 11.1035 6.2959 10.5371 5.87598C9.98047 5.44629 9.09668 5.23145 7.88574 5.23145H4.80957V10.6074ZM23.7646 23H19.5166V0.5H23.7646V23ZM26.6064 14.9287C26.6064 13.3564 26.9092 11.9551 27.5146 10.7246C28.1201 9.49414 28.9893 8.54199 30.1221 7.86816C31.2646 7.19434 32.5879 6.85742 34.0918 6.85742C36.2305 6.85742 37.9736 7.51172 39.3213 8.82031C40.6787 10.1289 41.4355 11.9062 41.5918 14.1523L41.6211 15.2363C41.6211 17.668 40.9424 19.6211 39.585 21.0957C38.2275 22.5605 36.4062 23.293 34.1211 23.293C31.8359 23.293 30.0098 22.5605 28.6426 21.0957C27.2852 19.6309 26.6064 17.6387 26.6064 15.1191V14.9287ZM30.8398 15.2363C30.8398 16.7402 31.123 17.8926 31.6895 18.6934C32.2559 19.4844 33.0664 19.8799 34.1211 19.8799C35.1465 19.8799 35.9473 19.4893 36.5234 18.708C37.0996 17.917 37.3877 16.6572 37.3877 14.9287C37.3877 13.4541 37.0996 12.3115 36.5234 11.501C35.9473 10.6904 35.1367 10.2852 34.0918 10.2852C33.0566 10.2852 32.2559 10.6904 31.6895 11.501C31.123 12.3018 30.8398 13.5469 30.8398 15.2363ZM43.5693 14.9287C43.5693 13.3564 43.8721 11.9551 44.4775 10.7246C45.083 9.49414 45.9521 8.54199 47.085 7.86816C48.2275 7.19434 49.5508 6.85742 51.0547 6.85742C53.1934 6.85742 54.9365 7.51172 56.2842 8.82031C57.6416 10.1289 58.3984 11.9062 58.5547 14.1523L58.584 15.2363C58.584 17.668 57.9053 19.6211 56.5479 21.0957C55.1904 22.5605 53.3691 23.293 51.084 23.293C48.7988 23.293 46.9727 22.5605 45.6055 21.0957C44.248 19.6309 43.5693 17.6387 43.5693 15.1191V14.9287ZM47.8027 15.2363C47.8027 16.7402 48.0859 17.8926 48.6523 18.6934C49.2188 19.4844 50.0293 19.8799 51.084 19.8799C52.1094 19.8799 52.9102 19.4893 53.4863 18.708C54.0625 17.917 54.3506 16.6572 54.3506 14.9287C54.3506 13.4541 54.0625 12.3115 53.4863 11.501C52.9102 10.6904 52.0996 10.2852 51.0547 10.2852C50.0195 10.2852 49.2188 10.6904 48.6523 11.501C48.0859 12.3018 47.8027 13.5469 47.8027 15.2363ZM65.1611 7.15039L65.293 8.92285C66.416 7.5459 67.9346 6.85742 69.8486 6.85742C71.8896 6.85742 73.291 7.66309 74.0527 9.27441C75.166 7.66309 76.7529 6.85742 78.8135 6.85742C80.5322 6.85742 81.8115 7.36035 82.6514 8.36621C83.4912 9.3623 83.9111 10.8662 83.9111 12.8779V23H79.6631V12.8926C79.6631 11.9941 79.4873 11.3398 79.1357 10.9297C78.7842 10.5098 78.1641 10.2998 77.2754 10.2998C76.0059 10.2998 75.127 10.9053 74.6387 12.1162L74.6533 23H70.4199V12.9072C70.4199 11.9893 70.2393 11.3252 69.8779 10.915C69.5166 10.5049 68.9014 10.2998 68.0322 10.2998C66.8311 10.2998 65.9619 10.7979 65.4248 11.7939V23H61.1914V7.15039H65.1611ZM101.46 15.2217C101.46 17.7607 100.918 19.7432 99.834 21.1689C98.75 22.585 97.2363 23.293 95.293 23.293C93.5742 23.293 92.2021 22.6338 91.1768 21.3154L90.9863 23H87.1777V0.5H91.4111V8.57129C92.3877 7.42871 93.6719 6.85742 95.2637 6.85742C97.1973 6.85742 98.7109 7.57031 99.8047 8.99609C100.908 10.4121 101.46 12.4092 101.46 14.9873V15.2217ZM97.2266 14.9141C97.2266 13.3125 96.9727 12.1455 96.4648 11.4131C95.957 10.6709 95.2002 10.2998 94.1943 10.2998C92.8467 10.2998 91.9189 10.8516 91.4111 11.9551V18.21C91.9287 19.3232 92.8662 19.8799 94.2236 19.8799C95.5908 19.8799 96.4893 19.2061 96.9189 17.8584C97.124 17.2139 97.2266 16.2324 97.2266 14.9141ZM111.377 23.293C109.053 23.293 107.158 22.5801 105.693 21.1543C104.238 19.7285 103.511 17.8291 103.511 15.4561V15.0459C103.511 13.4541 103.818 12.0332 104.434 10.7832C105.049 9.52344 105.918 8.55664 107.041 7.88281C108.174 7.19922 109.463 6.85742 110.908 6.85742C113.076 6.85742 114.78 7.54102 116.021 8.9082C117.271 10.2754 117.896 12.2139 117.896 14.7236V16.4521H107.803C107.939 17.4873 108.35 18.3174 109.033 18.9424C109.727 19.5674 110.601 19.8799 111.655 19.8799C113.286 19.8799 114.561 19.2891 115.479 18.1074L117.559 20.4365C116.924 21.335 116.064 22.0381 114.98 22.5459C113.896 23.0439 112.695 23.293 111.377 23.293ZM110.894 10.2852C110.054 10.2852 109.37 10.5684 108.843 11.1348C108.325 11.7012 107.993 12.5117 107.847 13.5664H113.735V13.2295C113.716 12.292 113.462 11.5693 112.974 11.0615C112.485 10.5439 111.792 10.2852 110.894 10.2852ZM129.219 11.1201C128.643 11.042 128.135 11.0029 127.695 11.0029C126.094 11.0029 125.044 11.5449 124.546 12.6289V23H120.312V7.15039H124.312L124.429 9.04004C125.278 7.58496 126.455 6.85742 127.959 6.85742C128.428 6.85742 128.867 6.9209 129.277 7.04785L129.219 11.1201ZM130.361 14.958C130.361 12.5264 130.938 10.5684 132.09 9.08398C133.252 7.59961 134.814 6.85742 136.777 6.85742C138.516 6.85742 139.868 7.45312 140.835 8.64453L141.011 7.15039H144.849V22.4727C144.849 23.8594 144.531 25.0654 143.896 26.0908C143.271 27.1162 142.388 27.8975 141.245 28.4346C140.103 28.9717 138.765 29.2402 137.231 29.2402C136.069 29.2402 134.937 29.0059 133.833 28.5371C132.729 28.0781 131.895 27.4824 131.328 26.75L133.203 24.1719C134.258 25.3535 135.537 25.9443 137.041 25.9443C138.164 25.9443 139.038 25.6416 139.663 25.0361C140.288 24.4404 140.601 23.5908 140.601 22.4873V21.6377C139.624 22.7412 138.34 23.293 136.748 23.293C134.844 23.293 133.301 22.5508 132.119 21.0664C130.947 19.5723 130.361 17.5947 130.361 15.1338V14.958ZM134.595 15.2656C134.595 16.7012 134.883 17.8291 135.459 18.6494C136.035 19.46 136.826 19.8652 137.832 19.8652C139.121 19.8652 140.044 19.3818 140.601 18.415V11.75C140.034 10.7832 139.121 10.2998 137.861 10.2998C136.846 10.2998 136.045 10.7148 135.459 11.5449C134.883 12.375 134.595 13.6152 134.595 15.2656Z" fill="#BBBBBB"/>
</svg>
