<svg width="148" height="28" viewBox="0 0 148 28" fill="none" xmlns="http://www.w3.org/2000/svg">
<path d="M3.53857 27V12.5078H0.855469V8.50879H3.53857V7.03906C3.53857 4.93132 4.15951 3.29639 5.40137 2.13428C6.64323 0.972168 8.38639 0.391113 10.6309 0.391113C11.4512 0.391113 12.3512 0.510742 13.3311 0.75L13.3481 4.98828C12.995 4.88574 12.5221 4.83447 11.9297 4.83447C10.1865 4.83447 9.31494 5.58643 9.31494 7.09033V8.50879H12.9209V12.5078H9.31494V27H3.53857ZM25.3623 27C25.1572 26.624 24.9749 26.0715 24.8154 25.3423C23.7559 26.6753 22.2747 27.3418 20.3721 27.3418C18.6289 27.3418 17.1478 26.8177 15.9287 25.7695C14.7096 24.71 14.1001 23.3826 14.1001 21.7876C14.1001 19.7824 14.8407 18.2671 16.3218 17.2417C17.8029 16.2163 19.9562 15.7036 22.7817 15.7036H24.5591V14.7295C24.5591 13.0319 23.8242 12.1831 22.3545 12.1831C20.9873 12.1831 20.3037 12.8553 20.3037 14.1997H14.5444C14.5444 12.411 15.3021 10.9583 16.8174 9.8418C18.3441 8.72526 20.2866 8.16699 22.645 8.16699C25.0034 8.16699 26.8662 8.74235 28.2334 9.89307C29.6006 11.0438 30.3013 12.6217 30.3354 14.627V22.813C30.3582 24.5106 30.6203 25.8094 31.1216 26.7095V27H25.3623ZM21.7563 23.2402C22.4741 23.2402 23.0666 23.0864 23.5337 22.7788C24.0122 22.4712 24.354 22.1237 24.5591 21.7363V18.7798H22.8843C20.8791 18.7798 19.8765 19.6799 19.8765 21.48C19.8765 22.0041 20.0531 22.4313 20.4062 22.7617C20.7594 23.0807 21.2095 23.2402 21.7563 23.2402ZM41.3584 22.8984C42.1673 22.8984 42.7939 22.682 43.2383 22.249C43.6826 21.8047 43.8991 21.1895 43.8877 20.4033H49.2881C49.2881 22.4313 48.5589 24.0947 47.1006 25.3936C45.6536 26.6924 43.7852 27.3418 41.4951 27.3418C38.8063 27.3418 36.6872 26.4987 35.1377 24.8125C33.5882 23.1263 32.8135 20.7907 32.8135 17.8057V17.5664C32.8135 15.6979 33.1553 14.0516 33.8389 12.6274C34.5339 11.1919 35.5308 10.0924 36.8296 9.3291C38.1284 8.55436 39.6665 8.16699 41.4438 8.16699C43.8478 8.16699 45.7562 8.8335 47.1689 10.1665C48.5817 11.4995 49.2881 13.3053 49.2881 15.584H43.8877C43.8877 14.627 43.6541 13.8921 43.187 13.3794C42.7199 12.8667 42.0933 12.6104 41.3071 12.6104C39.8146 12.6104 38.943 13.5617 38.6924 15.4644C38.6126 16.0682 38.5728 16.8999 38.5728 17.9595C38.5728 19.8166 38.7949 21.104 39.2393 21.8218C39.6836 22.5396 40.39 22.8984 41.3584 22.8984ZM60.6699 27.3418C57.833 27.3418 55.5373 26.4987 53.7827 24.8125C52.0282 23.1149 51.1509 20.9103 51.1509 18.1987V17.7202C51.1509 15.8289 51.4984 14.1598 52.1934 12.7129C52.8997 11.266 53.9251 10.1494 55.2695 9.36328C56.6139 8.56576 58.209 8.16699 60.0547 8.16699C62.6523 8.16699 64.7031 8.97591 66.207 10.5938C67.7109 12.2002 68.4629 14.4447 68.4629 17.3271V19.5659H57.0127C57.2178 20.6027 57.6678 21.4173 58.3628 22.0098C59.0578 22.6022 59.9578 22.8984 61.063 22.8984C62.8859 22.8984 64.3101 22.2604 65.3354 20.9844L67.9673 24.0947C67.2495 25.0859 66.2298 25.8778 64.9082 26.4702C63.598 27.0513 62.1852 27.3418 60.6699 27.3418ZM60.0205 12.6104C58.3343 12.6104 57.3317 13.7269 57.0127 15.96H62.8232V15.5156C62.846 14.5928 62.6125 13.8807 62.1226 13.3794C61.6326 12.8667 60.932 12.6104 60.0205 12.6104ZM87.9624 17.9082C87.9624 20.9388 87.3358 23.2687 86.0825 24.8979C84.8293 26.5272 83.0633 27.3418 80.7847 27.3418C78.9048 27.3418 77.3895 26.5955 76.2388 25.103L75.9995 27H70.8384V0.75H76.5977V9.99561C77.6686 8.77653 79.0529 8.16699 80.7505 8.16699C83.0519 8.16699 84.8293 8.993 86.0825 10.645C87.3358 12.297 87.9624 14.6213 87.9624 17.6177V17.9082ZM82.186 17.5493C82.186 15.772 81.9468 14.5073 81.4683 13.7554C81.0011 12.992 80.2777 12.6104 79.2979 12.6104C77.999 12.6104 77.099 13.106 76.5977 14.0972V21.4458C77.0876 22.4256 77.999 22.9155 79.332 22.9155C80.6878 22.9155 81.548 22.2547 81.9126 20.9331C82.0949 20.2837 82.186 19.1558 82.186 17.5493ZM89.791 17.5835C89.791 15.7378 90.1499 14.0972 90.8677 12.6616C91.5854 11.2147 92.6165 10.1038 93.9609 9.3291C95.3053 8.55436 96.8833 8.16699 98.6948 8.16699C101.463 8.16699 103.645 9.02718 105.24 10.7476C106.835 12.4565 107.633 14.7865 107.633 17.7373V17.9424C107.633 20.8249 106.83 23.1149 105.223 24.8125C103.628 26.4987 101.463 27.3418 98.729 27.3418C96.0972 27.3418 93.9837 26.5557 92.3887 24.9834C90.7936 23.3997 89.9334 21.2578 89.8081 18.5576L89.791 17.5835ZM95.5503 17.9424C95.5503 19.6514 95.818 20.9046 96.3535 21.7021C96.889 22.4997 97.6808 22.8984 98.729 22.8984C100.78 22.8984 101.828 21.3205 101.874 18.1646V17.5835C101.874 14.2681 100.814 12.6104 98.6948 12.6104C96.7694 12.6104 95.7269 14.0402 95.5674 16.8999L95.5503 17.9424ZM109.444 17.5835C109.444 15.7378 109.803 14.0972 110.521 12.6616C111.239 11.2147 112.27 10.1038 113.614 9.3291C114.959 8.55436 116.537 8.16699 118.348 8.16699C121.117 8.16699 123.299 9.02718 124.894 10.7476C126.489 12.4565 127.286 14.7865 127.286 17.7373V17.9424C127.286 20.8249 126.483 23.1149 124.876 24.8125C123.281 26.4987 121.117 27.3418 118.382 27.3418C115.75 27.3418 113.637 26.5557 112.042 24.9834C110.447 23.3997 109.587 21.2578 109.461 18.5576L109.444 17.5835ZM115.204 17.9424C115.204 19.6514 115.471 20.9046 116.007 21.7021C116.542 22.4997 117.334 22.8984 118.382 22.8984C120.433 22.8984 121.481 21.3205 121.527 18.1646V17.5835C121.527 14.2681 120.467 12.6104 118.348 12.6104C116.423 12.6104 115.38 14.0402 115.221 16.8999L115.204 17.9424ZM137.25 20.1128L135.626 21.7363V27H129.867V0.73291H135.626V14.6782L136.207 13.9092L140.548 8.50879H147.452L140.975 16.1138L147.879 27H141.283L137.25 20.1128Z" fill="#BBBBBB"/>
</svg>
