<svg width="127" height="42" viewBox="0 0 127 42" fill="none" xmlns="http://www.w3.org/2000/svg">
<path d="M24.6816 28.8032C23.5976 30.356 22.0815 31.5205 20.1333 32.2969C18.1997 33.0586 15.9438 33.4395 13.3657 33.4395C10.7583 33.4395 8.44381 32.8315 6.42233 31.6157C4.40084 30.3853 2.83346 28.6421 1.72018 26.3862C0.621544 24.1304 0.057579 21.5156 0.0282822 18.542V15.7515C0.0282822 10.9321 1.14889 7.19678 3.3901 4.54541C5.64596 1.89404 8.81002 0.568359 12.8823 0.568359C16.2221 0.568359 18.9101 1.42529 20.9463 3.13916C22.9824 4.83838 24.2275 7.25537 24.6816 10.3901H20.4629C19.6718 6.15674 17.1523 4.04004 12.9043 4.04004C10.0771 4.04004 7.93111 5.03613 6.46627 7.02832C5.01608 9.00586 4.28365 11.877 4.269 15.6416V18.2563C4.269 21.8452 5.08932 24.7017 6.72994 26.8257C8.37057 28.9351 10.5898 29.9897 13.3877 29.9897C14.9697 29.9897 16.354 29.814 17.5405 29.4624C18.727 29.1108 19.7085 28.5176 20.4848 27.6826V20.4976H13.08V17.0698H24.6816V28.8032ZM29.5644 22.2383C29.5644 20.168 29.9746 18.306 30.7949 16.6523C31.6152 14.9857 32.7675 13.7096 34.2519 12.8242C35.7363 11.9258 37.442 11.4766 39.3691 11.4766C42.2207 11.4766 44.5319 12.3945 46.3027 14.2305C48.0866 16.0664 49.0501 18.5013 49.1933 21.5352L49.2129 22.6484C49.2129 24.7318 48.8092 26.5938 48.0019 28.2344C47.2076 29.875 46.0618 31.1445 44.5644 32.043C43.08 32.9414 41.3613 33.3906 39.4082 33.3906C36.4264 33.3906 34.0371 32.401 32.2402 30.4219C30.4563 28.4297 29.5644 25.7799 29.5644 22.4727V22.2383ZM34.3105 22.6484C34.3105 24.8229 34.7597 26.5286 35.6582 27.7656C36.5566 28.9896 37.8066 29.6016 39.4082 29.6016C41.0097 29.6016 42.2532 28.9766 43.1386 27.7266C44.0371 26.4766 44.4863 24.6471 44.4863 22.2383C44.4863 20.1029 44.0241 18.4102 43.0996 17.1602C42.1881 15.9102 40.9446 15.2852 39.3691 15.2852C37.8196 15.2852 36.5892 15.9036 35.6777 17.1406C34.7662 18.3646 34.3105 20.2005 34.3105 22.6484ZM52.3379 22.2383C52.3379 20.168 52.748 18.306 53.5683 16.6523C54.3886 14.9857 55.541 13.7096 57.0254 12.8242C58.5097 11.9258 60.2155 11.4766 62.1425 11.4766C64.9941 11.4766 67.3053 12.3945 69.0761 14.2305C70.86 16.0664 71.8235 18.5013 71.9668 21.5352L71.9863 22.6484C71.9863 24.7318 71.5826 26.5938 70.7754 28.2344C69.9811 29.875 68.8352 31.1445 67.3379 32.043C65.8535 32.9414 64.1347 33.3906 62.1816 33.3906C59.1998 33.3906 56.8105 32.401 55.0136 30.4219C53.2298 28.4297 52.3379 25.7799 52.3379 22.4727V22.2383ZM57.0839 22.6484C57.0839 24.8229 57.5332 26.5286 58.4316 27.7656C59.33 28.9896 60.58 29.6016 62.1816 29.6016C63.7832 29.6016 65.0267 28.9766 65.9121 27.7266C66.8105 26.4766 67.2597 24.6471 67.2597 22.2383C67.2597 20.1029 66.7975 18.4102 65.873 17.1602C64.9616 15.9102 63.7181 15.2852 62.1425 15.2852C60.5931 15.2852 59.3626 15.9036 58.4511 17.1406C57.5397 18.3646 57.0839 20.2005 57.0839 22.6484ZM75.1699 22.2773C75.1699 18.9961 75.9381 16.3789 77.4746 14.4258C79.0241 12.4596 81.0748 11.4766 83.6269 11.4766C86.0358 11.4766 87.9303 12.3164 89.3105 13.9961L89.5254 11.8672H93.8027V32.3555C93.8027 35.1289 92.9368 37.3164 91.205 38.918C89.4863 40.5195 87.1621 41.3203 84.2324 41.3203C82.6829 41.3203 81.166 40.9948 79.6816 40.3438C78.2102 39.7057 77.0905 38.8659 76.3222 37.8242L78.5683 34.9727C80.0267 36.7044 81.8235 37.5703 83.9589 37.5703C85.5345 37.5703 86.778 37.1406 87.6894 36.2812C88.6009 35.4349 89.0566 34.1849 89.0566 32.5312V31.1055C87.6894 32.6289 85.8665 33.3906 83.5879 33.3906C81.1139 33.3906 79.0892 32.4076 77.5136 30.4414C75.9511 28.4753 75.1699 25.7539 75.1699 22.2773ZM79.8964 22.6875C79.8964 24.8099 80.3261 26.4831 81.1855 27.707C82.0579 28.918 83.2623 29.5234 84.7988 29.5234C86.7129 29.5234 88.1321 28.7031 89.0566 27.0625V17.7656C88.1582 16.1641 86.7519 15.3633 84.8379 15.3633C83.2754 15.3633 82.0579 15.9818 81.1855 17.2188C80.3261 18.4557 79.8964 20.2786 79.8964 22.6875ZM103.744 33H98.998V3H103.744V33ZM118.236 33.3906C115.228 33.3906 112.787 32.4466 110.912 30.5586C109.05 28.6576 108.119 26.1315 108.119 22.9805V22.3945C108.119 20.2852 108.523 18.4036 109.33 16.75C110.15 15.0833 111.296 13.7878 112.768 12.8633C114.239 11.9388 115.88 11.4766 117.689 11.4766C120.567 11.4766 122.787 12.3945 124.35 14.2305C125.925 16.0664 126.713 18.6641 126.713 22.0234V23.9375H112.904C113.047 25.6823 113.627 27.0625 114.643 28.0781C115.671 29.0938 116.96 29.6016 118.51 29.6016C120.684 29.6016 122.455 28.7227 123.822 26.9648L126.381 29.4062C125.534 30.6693 124.402 31.6523 122.982 32.3555C121.576 33.0456 119.994 33.3906 118.236 33.3906ZM117.67 15.2852C116.368 15.2852 115.313 15.7409 114.506 16.6523C113.712 17.5638 113.204 18.8333 112.982 20.4609H122.025V20.1094C121.921 18.5208 121.498 17.3229 120.756 16.5156C120.014 15.6953 118.985 15.2852 117.67 15.2852Z" fill="#BBBBBB"/>
</svg>
