<svg width="200" height="50" viewBox="0 0 200 50" fill="none" xmlns="http://www.w3.org/2000/svg">
<path d="M47.8242 12.1172L55.002 31.1895L62.1626 12.1172H67.751V37H63.4443V28.7969L63.8716 17.8252L56.5229 37H53.4297L46.0981 17.8423L46.5254 28.7969V37H42.2188V12.1172H47.8242ZM76.894 37H72.7412V18.5088H76.894V37ZM72.4849 13.7065C72.4849 13.0685 72.6842 12.5387 73.083 12.1172C73.4932 11.6956 74.0742 11.4849 74.8262 11.4849C75.5781 11.4849 76.1592 11.6956 76.5693 12.1172C76.9795 12.5387 77.1846 13.0685 77.1846 13.7065C77.1846 14.3332 76.9795 14.8573 76.5693 15.2788C76.1592 15.689 75.5781 15.894 74.8262 15.894C74.0742 15.894 73.4932 15.689 73.083 15.2788C72.6842 14.8573 72.4849 14.3332 72.4849 13.7065ZM89.0278 34.0264C90.0646 34.0264 90.9248 33.7244 91.6084 33.1206C92.292 32.5168 92.6566 31.7705 92.7021 30.8818H96.6157C96.5701 32.0326 96.2113 33.1092 95.5391 34.1118C94.8669 35.103 93.9554 35.8892 92.8047 36.4702C91.654 37.0513 90.4121 37.3418 89.0791 37.3418C86.4928 37.3418 84.4421 36.5044 82.9268 34.8296C81.4115 33.1548 80.6538 30.842 80.6538 27.8911V27.4639C80.6538 24.6497 81.4058 22.3996 82.9097 20.7134C84.4136 19.0158 86.4644 18.167 89.062 18.167C91.2609 18.167 93.0496 18.8107 94.4282 20.0981C95.8182 21.3742 96.5474 23.0547 96.6157 25.1396H92.7021C92.6566 24.0801 92.292 23.2085 91.6084 22.5249C90.9362 21.8413 90.076 21.4995 89.0278 21.4995C87.6834 21.4995 86.6466 21.9894 85.9175 22.9692C85.1883 23.9377 84.818 25.4131 84.8066 27.3955V28.062C84.8066 30.0672 85.1655 31.5654 85.8833 32.5566C86.6125 33.5365 87.6606 34.0264 89.0278 34.0264ZM109.433 22.3027C108.886 22.2116 108.322 22.166 107.741 22.166C105.839 22.166 104.557 22.8952 103.896 24.3535V37H99.7432V18.5088H103.708L103.811 20.5767C104.813 18.9702 106.203 18.167 107.98 18.167C108.573 18.167 109.063 18.2467 109.45 18.4062L109.433 22.3027ZM110.664 27.5835C110.664 25.772 111.022 24.1427 111.74 22.6958C112.458 21.2375 113.466 20.1209 114.765 19.3462C116.064 18.5601 117.556 18.167 119.243 18.167C121.738 18.167 123.76 18.9702 125.31 20.5767C126.87 22.1831 127.714 24.3136 127.839 26.9683L127.856 27.9424C127.856 29.7653 127.503 31.3945 126.796 32.8301C126.101 34.2656 125.099 35.3765 123.789 36.1626C122.49 36.9487 120.986 37.3418 119.277 37.3418C116.668 37.3418 114.577 36.4759 113.005 34.7441C111.444 33.001 110.664 30.6825 110.664 27.7886V27.5835ZM114.816 27.9424C114.816 29.8451 115.209 31.3376 115.996 32.4199C116.782 33.4909 117.875 34.0264 119.277 34.0264C120.678 34.0264 121.766 33.4795 122.541 32.3857C123.327 31.292 123.72 29.6912 123.72 27.5835C123.72 25.715 123.316 24.2339 122.507 23.1401C121.709 22.0464 120.621 21.4995 119.243 21.4995C117.887 21.4995 116.81 22.0407 116.013 23.123C115.215 24.194 114.816 25.8005 114.816 27.9424ZM141.733 31.9756C141.733 31.235 141.425 30.6711 140.81 30.2837C140.206 29.8963 139.198 29.5545 137.785 29.2583C136.372 28.9621 135.193 28.5861 134.248 28.1304C132.174 27.1278 131.137 25.6751 131.137 23.7725C131.137 22.1774 131.809 20.8444 133.154 19.7734C134.498 18.7025 136.207 18.167 138.281 18.167C140.491 18.167 142.274 18.7139 143.63 19.8076C144.997 20.9014 145.681 22.3198 145.681 24.063H141.528C141.528 23.2655 141.232 22.6047 140.639 22.0806C140.047 21.5451 139.261 21.2773 138.281 21.2773C137.369 21.2773 136.623 21.4881 136.042 21.9097C135.472 22.3312 135.188 22.8952 135.188 23.6016C135.188 24.2396 135.455 24.7352 135.991 25.0884C136.526 25.4416 137.609 25.8005 139.238 26.165C140.867 26.5182 142.143 26.9455 143.066 27.4468C144 27.9367 144.689 28.5291 145.134 29.2241C145.59 29.9191 145.817 30.7622 145.817 31.7534C145.817 33.4168 145.128 34.7669 143.75 35.8037C142.371 36.8291 140.565 37.3418 138.332 37.3418C136.817 37.3418 135.467 37.0684 134.282 36.5215C133.097 35.9746 132.174 35.2227 131.513 34.2656C130.852 33.3086 130.522 32.2775 130.522 31.1724H134.555C134.612 32.1522 134.982 32.9098 135.666 33.4453C136.35 33.9694 137.255 34.2314 138.383 34.2314C139.477 34.2314 140.309 34.0264 140.878 33.6162C141.448 33.1947 141.733 32.6478 141.733 31.9756ZM148.671 27.5835C148.671 25.772 149.03 24.1427 149.748 22.6958C150.466 21.2375 151.474 20.1209 152.773 19.3462C154.072 18.5601 155.564 18.167 157.25 18.167C159.746 18.167 161.768 18.9702 163.317 20.5767C164.878 22.1831 165.721 24.3136 165.847 26.9683L165.864 27.9424C165.864 29.7653 165.511 31.3945 164.804 32.8301C164.109 34.2656 163.107 35.3765 161.796 36.1626C160.498 36.9487 158.994 37.3418 157.285 37.3418C154.676 37.3418 152.585 36.4759 151.013 34.7441C149.452 33.001 148.671 30.6825 148.671 27.7886V27.5835ZM152.824 27.9424C152.824 29.8451 153.217 31.3376 154.003 32.4199C154.79 33.4909 155.883 34.0264 157.285 34.0264C158.686 34.0264 159.774 33.4795 160.549 32.3857C161.335 31.292 161.728 29.6912 161.728 27.5835C161.728 25.715 161.324 24.2339 160.515 23.1401C159.717 22.0464 158.629 21.4995 157.25 21.4995C155.895 21.4995 154.818 22.0407 154.021 23.123C153.223 24.194 152.824 25.8005 152.824 27.9424ZM170.837 37V21.585H168.017V18.5088H170.837V16.8169C170.837 14.7661 171.407 13.1825 172.546 12.0659C173.685 10.9494 175.28 10.3911 177.331 10.3911C178.06 10.3911 178.835 10.4937 179.655 10.6987L179.553 13.9458C179.097 13.8547 178.567 13.8091 177.963 13.8091C175.981 13.8091 174.99 14.8288 174.99 16.8682V18.5088H178.75V21.585H174.99V37H170.837ZM186.987 14.0142V18.5088H190.251V21.585H186.987V31.9072C186.987 32.6136 187.124 33.1263 187.397 33.4453C187.682 33.7529 188.183 33.9067 188.901 33.9067C189.379 33.9067 189.864 33.8498 190.354 33.7358V36.9487C189.408 37.2108 188.496 37.3418 187.619 37.3418C184.429 37.3418 182.834 35.5815 182.834 32.061V21.585H179.792V18.5088H182.834V14.0142H186.987Z" fill="#BBBBBB"/>
<rect y="8" width="13.75" height="14.3478" fill="#BBBBBB"/>
<rect y="26.6523" width="13.75" height="14.3478" fill="#BBBBBB"/>
<rect x="19.25" y="8" width="13.75" height="14.3478" fill="#BBBBBB"/>
<rect x="19.25" y="26.6523" width="13.75" height="14.3478" fill="#BBBBBB"/>
</svg>
