<svg width="240" height="35" viewBox="0 0 240 35" fill="none" xmlns="http://www.w3.org/2000/svg">
<path d="M4.77148 2.11719L12.9062 22.4199L21.041 2.11719H25.2964V27H22.0151V17.3101L22.3228 6.85107L14.1538 27H11.6416L3.48975 6.90234L3.81445 17.3101V27H0.533203V2.11719H4.77148ZM29.7568 17.5835C29.7568 15.772 30.11 14.1427 30.8164 12.6958C31.5342 11.2489 32.5254 10.1323 33.79 9.34619C35.0661 8.56006 36.5187 8.16699 38.1479 8.16699C40.6659 8.16699 42.6995 9.03857 44.249 10.7817C45.8099 12.5249 46.5903 14.8434 46.5903 17.7373V17.9595C46.5903 19.7596 46.2428 21.3774 45.5479 22.813C44.8643 24.2371 43.8787 25.348 42.5913 26.1455C41.3153 26.943 39.8455 27.3418 38.1821 27.3418C35.6756 27.3418 33.6419 26.4702 32.0811 24.7271C30.5316 22.9839 29.7568 20.6768 29.7568 17.8057V17.5835ZM32.9355 17.9595C32.9355 20.0103 33.4084 21.6566 34.354 22.8984C35.311 24.1403 36.5871 24.7612 38.1821 24.7612C39.7886 24.7612 41.0646 24.1346 42.0103 22.8813C42.9559 21.6167 43.4287 19.8507 43.4287 17.5835C43.4287 15.5555 42.9445 13.9149 41.9761 12.6616C41.019 11.397 39.743 10.7646 38.1479 10.7646C36.5871 10.7646 35.3281 11.3856 34.3711 12.6274C33.4141 13.8693 32.9355 15.6466 32.9355 17.9595ZM59.4932 11.3457C59.0146 11.266 58.4963 11.2261 57.938 11.2261C55.8644 11.2261 54.4574 12.109 53.7168 13.875V27H50.5552V8.50879H53.6313L53.6826 10.645C54.7194 8.993 56.1891 8.16699 58.0918 8.16699C58.707 8.16699 59.1742 8.24674 59.4932 8.40625V11.3457ZM61.3218 17.6006C61.3218 14.7181 61.9883 12.4281 63.3213 10.7305C64.6543 9.02148 66.4202 8.16699 68.6191 8.16699C70.875 8.16699 72.6353 8.96452 73.8999 10.5596L74.0537 8.50879H76.9419V26.5557C76.9419 28.9482 76.2298 30.8338 74.8057 32.2124C73.3929 33.591 71.4902 34.2803 69.0977 34.2803C67.7646 34.2803 66.4601 33.9954 65.1841 33.4258C63.908 32.8561 62.9339 32.0757 62.2617 31.0845L63.9023 29.1875C65.2581 30.8623 66.9159 31.6997 68.8755 31.6997C70.4136 31.6997 71.6099 31.2668 72.4644 30.4009C73.3302 29.535 73.7632 28.3159 73.7632 26.7437V25.1543C72.4985 26.6126 70.7725 27.3418 68.585 27.3418C66.4202 27.3418 64.6657 26.4702 63.3213 24.7271C61.9883 22.9839 61.3218 20.6084 61.3218 17.6006ZM64.5005 17.9595C64.5005 20.0444 64.9277 21.6851 65.7822 22.8813C66.6367 24.0662 67.833 24.6587 69.3711 24.6587C71.3649 24.6587 72.8289 23.7529 73.7632 21.9414V13.499C72.7948 11.7331 71.3421 10.8501 69.4053 10.8501C67.8672 10.8501 66.6652 11.4482 65.7993 12.6445C64.9334 13.8408 64.5005 15.6125 64.5005 17.9595ZM93.1431 27C92.9608 26.6354 92.8127 25.986 92.6987 25.0518C91.229 26.5785 89.4744 27.3418 87.4351 27.3418C85.6121 27.3418 84.1139 26.8291 82.9404 25.8037C81.7783 24.7669 81.1973 23.4567 81.1973 21.873C81.1973 19.9476 81.9264 18.4551 83.3848 17.3955C84.8545 16.3245 86.9167 15.7891 89.5713 15.7891H92.6475V14.3364C92.6475 13.2313 92.3171 12.354 91.6562 11.7046C90.9954 11.0438 90.0213 10.7134 88.7339 10.7134C87.606 10.7134 86.6603 10.9982 85.897 11.5679C85.1336 12.1375 84.752 12.8268 84.752 13.6357H81.5732C81.5732 12.7129 81.8979 11.8242 82.5474 10.9697C83.2082 10.1038 84.0968 9.42025 85.2134 8.91895C86.3413 8.41764 87.5775 8.16699 88.9219 8.16699C91.0524 8.16699 92.7215 8.70247 93.9292 9.77344C95.1369 10.833 95.7635 12.297 95.8091 14.1655V22.6763C95.8091 24.3739 96.0256 25.724 96.4585 26.7266V27H93.1431ZM87.8965 24.5903C88.8877 24.5903 89.8276 24.334 90.7163 23.8213C91.605 23.3086 92.2487 22.6421 92.6475 21.8218V18.0278H90.1694C86.2957 18.0278 84.3589 19.1615 84.3589 21.4287C84.3589 22.4199 84.6893 23.1947 85.3501 23.7529C86.0109 24.3112 86.8597 24.5903 87.8965 24.5903ZM103.756 8.50879L103.858 10.833C105.271 9.05566 107.117 8.16699 109.396 8.16699C113.303 8.16699 115.274 10.3716 115.309 14.7808V27H112.147V14.7637C112.136 13.4307 111.828 12.4451 111.224 11.8071C110.632 11.1691 109.703 10.8501 108.438 10.8501C107.413 10.8501 106.513 11.1235 105.738 11.6704C104.964 12.2173 104.36 12.9351 103.927 13.8237V27H100.765V8.50879H103.756ZM136.585 15.9087C133.771 15.0998 131.721 14.1086 130.433 12.9351C129.157 11.7502 128.519 10.2918 128.519 8.56006C128.519 6.60042 129.299 4.98258 130.86 3.70654C132.433 2.41911 134.472 1.77539 136.979 1.77539C138.688 1.77539 140.208 2.10579 141.542 2.7666C142.886 3.42741 143.923 4.33887 144.652 5.50098C145.392 6.66309 145.763 7.93343 145.763 9.31201H142.464C142.464 7.80811 141.986 6.62891 141.029 5.77441C140.072 4.90853 138.722 4.47559 136.979 4.47559C135.361 4.47559 134.096 4.83447 133.185 5.55225C132.285 6.25863 131.834 7.24414 131.834 8.50879C131.834 9.52279 132.262 10.383 133.116 11.0894C133.982 11.7843 135.446 12.4224 137.508 13.0034C139.582 13.5845 141.2 14.2282 142.362 14.9346C143.535 15.6296 144.401 16.4442 144.959 17.3784C145.529 18.3127 145.814 19.4121 145.814 20.6768C145.814 22.6934 145.028 24.3112 143.456 25.5303C141.883 26.738 139.781 27.3418 137.149 27.3418C135.44 27.3418 133.845 27.0171 132.364 26.3677C130.883 25.7069 129.738 24.8068 128.929 23.6675C128.132 22.5282 127.733 21.235 127.733 19.7881H131.031C131.031 21.292 131.584 22.4826 132.689 23.3599C133.806 24.2257 135.292 24.6587 137.149 24.6587C138.881 24.6587 140.208 24.3055 141.131 23.5991C142.054 22.8927 142.516 21.93 142.516 20.7109C142.516 19.4919 142.088 18.5519 141.234 17.8911C140.379 17.2189 138.83 16.5581 136.585 15.9087ZM153.829 4.03125V8.50879H157.281V10.9526H153.829V22.4199C153.829 23.1605 153.983 23.7188 154.291 24.0947C154.598 24.4593 155.122 24.6416 155.863 24.6416C156.227 24.6416 156.729 24.5732 157.367 24.4365V27C156.535 27.2279 155.726 27.3418 154.94 27.3418C153.527 27.3418 152.462 26.9146 151.744 26.0601C151.026 25.2056 150.667 23.9922 150.667 22.4199V10.9526H147.301V8.50879H150.667V4.03125H153.829ZM172.406 27C172.223 26.6354 172.075 25.986 171.961 25.0518C170.492 26.5785 168.737 27.3418 166.698 27.3418C164.875 27.3418 163.377 26.8291 162.203 25.8037C161.041 24.7669 160.46 23.4567 160.46 21.873C160.46 19.9476 161.189 18.4551 162.647 17.3955C164.117 16.3245 166.179 15.7891 168.834 15.7891H171.91V14.3364C171.91 13.2313 171.58 12.354 170.919 11.7046C170.258 11.0438 169.284 10.7134 167.997 10.7134C166.869 10.7134 165.923 10.9982 165.16 11.5679C164.396 12.1375 164.015 12.8268 164.015 13.6357H160.836C160.836 12.7129 161.161 11.8242 161.81 10.9697C162.471 10.1038 163.36 9.42025 164.476 8.91895C165.604 8.41764 166.84 8.16699 168.185 8.16699C170.315 8.16699 171.984 8.70247 173.192 9.77344C174.4 10.833 175.026 12.297 175.072 14.1655V22.6763C175.072 24.3739 175.288 25.724 175.721 26.7266V27H172.406ZM167.159 24.5903C168.15 24.5903 169.09 24.334 169.979 23.8213C170.868 23.3086 171.511 22.6421 171.91 21.8218V18.0278H169.432C165.558 18.0278 163.622 19.1615 163.622 21.4287C163.622 22.4199 163.952 23.1947 164.613 23.7529C165.274 24.3112 166.122 24.5903 167.159 24.5903ZM183.019 8.50879L183.121 10.833C184.534 9.05566 186.38 8.16699 188.658 8.16699C192.566 8.16699 194.537 10.3716 194.571 14.7808V27H191.41V14.7637C191.398 13.4307 191.091 12.4451 190.487 11.8071C189.894 11.1691 188.966 10.8501 187.701 10.8501C186.676 10.8501 185.776 11.1235 185.001 11.6704C184.226 12.2173 183.622 12.9351 183.189 13.8237V27H180.028V8.50879H183.019ZM202.774 27H199.613V0.75H202.774V27ZM215.523 27.3418C213.017 27.3418 210.978 26.5215 209.405 24.8809C207.833 23.2288 207.047 21.0243 207.047 18.2671V17.686C207.047 15.8517 207.394 14.2168 208.089 12.7812C208.796 11.3343 209.776 10.2064 211.029 9.39746C212.293 8.57715 213.661 8.16699 215.13 8.16699C217.534 8.16699 219.403 8.95882 220.736 10.5425C222.069 12.1261 222.735 14.3934 222.735 17.3442V18.6602H210.208C210.254 20.4831 210.784 21.9585 211.798 23.0864C212.823 24.203 214.122 24.7612 215.694 24.7612C216.811 24.7612 217.757 24.5334 218.531 24.0776C219.306 23.6219 219.984 23.0181 220.565 22.2661L222.496 23.77C220.947 26.1512 218.622 27.3418 215.523 27.3418ZM215.13 10.7646C213.854 10.7646 212.783 11.2318 211.917 12.166C211.052 13.0889 210.516 14.3877 210.311 16.0625H219.574V15.8232C219.483 14.2168 219.05 12.9749 218.275 12.0977C217.5 11.209 216.452 10.7646 215.13 10.7646ZM232.22 22.3687L236.527 8.50879H239.911L232.477 29.854C231.326 32.9302 229.497 34.4683 226.991 34.4683L226.393 34.417L225.213 34.1948V31.6313L226.068 31.6997C227.139 31.6997 227.971 31.4832 228.563 31.0503C229.167 30.6174 229.662 29.8255 230.05 28.6748L230.75 26.7949L224.154 8.50879H227.606L232.22 22.3687Z" fill="#BBBBBB"/>
</svg>
