<svg width="233" height="70" viewBox="0 0 233 70" fill="none" xmlns="http://www.w3.org/2000/svg">
<g filter="url(#filter0_b)">
<path d="M61.5 30.7142C61.5 14.6534 76.8663 1.50022 96 1.50022C115.134 1.50022 130.5 14.6534 130.5 30.7142C130.5 46.775 115.134 59.9282 96 59.9282C76.8663 59.9282 61.5 46.775 61.5 30.7142Z" stroke="#BBBBBB"/>
<path d="M61.5 30.7142C61.5 14.6534 76.8663 1.50022 96 1.50022C115.134 1.50022 130.5 14.6534 130.5 30.7142C130.5 46.775 115.134 59.9282 96 59.9282C76.8663 59.9282 61.5 46.775 61.5 30.7142Z" stroke="url(#paint0_linear)"/>
<path d="M61.5 30.7142C61.5 14.6534 76.8663 1.50022 96 1.50022C115.134 1.50022 130.5 14.6534 130.5 30.7142C130.5 46.775 115.134 59.9282 96 59.9282C76.8663 59.9282 61.5 46.775 61.5 30.7142Z" stroke="url(#paint1_linear)"/>
<path d="M61.5 30.7142C61.5 14.6534 76.8663 1.50022 96 1.50022C115.134 1.50022 130.5 14.6534 130.5 30.7142C130.5 46.775 115.134 59.9282 96 59.9282C76.8663 59.9282 61.5 46.775 61.5 30.7142Z" stroke="url(#paint2_linear)"/>
<path d="M61.5 30.7142C61.5 14.6534 76.8663 1.50022 96 1.50022C115.134 1.50022 130.5 14.6534 130.5 30.7142C130.5 46.775 115.134 59.9282 96 59.9282C76.8663 59.9282 61.5 46.775 61.5 30.7142Z" stroke="url(#paint3_linear)"/>
</g>
<g filter="url(#filter1_b)">
<path d="M130.5 35.2858C130.5 51.3466 115.134 64.4998 96 64.4998C76.8663 64.4998 61.5 51.3466 61.5 35.2858C61.5 19.225 76.8663 6.07178 96 6.07178C115.134 6.07178 130.5 19.225 130.5 35.2858Z" stroke="#BBBBBB"/>
<path d="M130.5 35.2858C130.5 51.3466 115.134 64.4998 96 64.4998C76.8663 64.4998 61.5 51.3466 61.5 35.2858C61.5 19.225 76.8663 6.07178 96 6.07178C115.134 6.07178 130.5 19.225 130.5 35.2858Z" stroke="url(#paint4_linear)"/>
<path d="M130.5 35.2858C130.5 51.3466 115.134 64.4998 96 64.4998C76.8663 64.4998 61.5 51.3466 61.5 35.2858C61.5 19.225 76.8663 6.07178 96 6.07178C115.134 6.07178 130.5 19.225 130.5 35.2858Z" stroke="url(#paint5_linear)"/>
<path d="M130.5 35.2858C130.5 51.3466 115.134 64.4998 96 64.4998C76.8663 64.4998 61.5 51.3466 61.5 35.2858C61.5 19.225 76.8663 6.07178 96 6.07178C115.134 6.07178 130.5 19.225 130.5 35.2858Z" stroke="url(#paint6_linear)"/>
<path d="M130.5 35.2858C130.5 51.3466 115.134 64.4998 96 64.4998C76.8663 64.4998 61.5 51.3466 61.5 35.2858C61.5 19.225 76.8663 6.07178 96 6.07178C115.134 6.07178 130.5 19.225 130.5 35.2858Z" stroke="url(#paint7_linear)"/>
</g>
<ellipse cx="96" cy="32.9996" rx="35" ry="29.714" fill="white"/>
<path d="M13.7793 43H10.918L3.89648 31.623H3.81836L3.86719 32.2578C3.95833 33.4688 4.00391 34.5755 4.00391 35.5781V43H1.88477V28.7227H4.7168L11.7188 40.041H11.7773C11.7643 39.8913 11.7383 39.3477 11.6992 38.4102C11.6602 37.4661 11.6406 36.7305 11.6406 36.2031V28.7227H13.7793V43ZM17.5488 28.7227H21.7871C23.7533 28.7227 25.1725 29.0091 26.0449 29.582C26.9238 30.1549 27.3633 31.0599 27.3633 32.2969C27.3633 33.1302 27.1484 33.8236 26.7188 34.377C26.2891 34.9303 25.6706 35.2786 24.8633 35.4219V35.5195C25.8659 35.7083 26.6016 36.0827 27.0703 36.6426C27.5456 37.196 27.7832 37.9479 27.7832 38.8984C27.7832 40.181 27.334 41.1868 26.4355 41.916C25.5436 42.6387 24.3001 43 22.7051 43H17.5488V28.7227ZM19.8828 34.6211H22.1289C23.1055 34.6211 23.8184 34.4681 24.2676 34.1621C24.7168 33.8496 24.9414 33.3223 24.9414 32.5801C24.9414 31.9095 24.6973 31.4245 24.209 31.125C23.7272 30.8255 22.959 30.6758 21.9043 30.6758H19.8828V34.6211ZM19.8828 36.5156V41.0371H22.3633C23.3398 41.0371 24.0755 40.8516 24.5703 40.4805C25.0716 40.1029 25.3223 39.5104 25.3223 38.7031C25.3223 37.9609 25.0684 37.4108 24.5605 37.0527C24.0527 36.6947 23.2812 36.5156 22.2461 36.5156H19.8828ZM36.8262 30.5195C35.485 30.5195 34.4303 30.9948 33.6621 31.9453C32.8939 32.8958 32.5098 34.2077 32.5098 35.8809C32.5098 37.6322 32.8776 38.957 33.6133 39.8555C34.3555 40.7539 35.4264 41.2031 36.8262 41.2031C37.4316 41.2031 38.0176 41.1445 38.584 41.0273C39.1504 40.9036 39.7396 40.7474 40.3516 40.5586V42.5605C39.2318 42.9837 37.9622 43.1953 36.543 43.1953C34.4531 43.1953 32.8483 42.5638 31.7285 41.3008C30.6087 40.0312 30.0488 38.2181 30.0488 35.8613C30.0488 34.377 30.319 33.0781 30.8594 31.9648C31.4062 30.8516 32.194 29.9987 33.2227 29.4062C34.2513 28.8138 35.459 28.5176 36.8457 28.5176C38.304 28.5176 39.6517 28.8236 40.8887 29.4355L40.0488 31.3789C39.5671 31.151 39.056 30.9525 38.5156 30.7832C37.9818 30.6074 37.4186 30.5195 36.8262 30.5195ZM85.791 28.7227V37.9609C85.791 39.0156 85.5632 39.9401 85.1074 40.7344C84.6582 41.5221 84.0039 42.1309 83.1445 42.5605C82.2917 42.9837 81.2695 43.1953 80.0781 43.1953C78.3073 43.1953 76.9303 42.7266 75.9473 41.7891C74.9642 40.8516 74.4727 39.5625 74.4727 37.9219V28.7227H76.8164V37.7559C76.8164 38.9342 77.0898 39.8034 77.6367 40.3633C78.1836 40.9232 79.0234 41.2031 80.1562 41.2031C82.3568 41.2031 83.457 40.0475 83.457 37.7363V28.7227H85.791ZM101.338 43H98.4766L91.4551 31.623H91.377L91.4258 32.2578C91.5169 33.4688 91.5625 34.5755 91.5625 35.5781V43H89.4434V28.7227H92.2754L99.2773 40.041H99.3359C99.3229 39.8913 99.2969 39.3477 99.2578 38.4102C99.2188 37.4661 99.1992 36.7305 99.1992 36.2031V28.7227H101.338V43ZM105.107 43V28.7227H107.441V43H105.107ZM119.355 28.7227H121.777L116.777 43H114.316L109.336 28.7227H111.738L114.717 37.5996C114.873 38.0228 115.039 38.5697 115.215 39.2402C115.391 39.9043 115.505 40.3991 115.557 40.7246C115.641 40.2298 115.771 39.6569 115.947 39.0059C116.123 38.3548 116.266 37.873 116.377 37.5605L119.355 28.7227ZM131.738 43H123.662V28.7227H131.738V30.6953H125.996V34.582H131.377V36.5352H125.996V41.0176H131.738V43ZM137.168 35.3633H138.789C139.876 35.3633 140.664 35.1615 141.152 34.7578C141.641 34.3542 141.885 33.7552 141.885 32.9609C141.885 32.1536 141.621 31.5742 141.094 31.2227C140.566 30.8711 139.772 30.6953 138.711 30.6953H137.168V35.3633ZM137.168 37.2969V43H134.834V28.7227H138.867C140.71 28.7227 142.074 29.0677 142.959 29.7578C143.844 30.4479 144.287 31.4896 144.287 32.8828C144.287 34.6602 143.363 35.9264 141.514 36.6816L145.547 43H142.891L139.473 37.2969H137.168ZM155.859 39.123C155.859 40.3926 155.4 41.3887 154.482 42.1113C153.564 42.834 152.298 43.1953 150.684 43.1953C149.069 43.1953 147.747 42.9447 146.719 42.4434V40.2363C147.37 40.5423 148.06 40.7832 148.789 40.959C149.525 41.1348 150.208 41.2227 150.84 41.2227C151.764 41.2227 152.445 41.0469 152.881 40.6953C153.324 40.3438 153.545 39.8717 153.545 39.2793C153.545 38.7454 153.343 38.293 152.939 37.9219C152.536 37.5508 151.702 37.1113 150.439 36.6035C149.137 36.0762 148.219 35.474 147.686 34.7969C147.152 34.1198 146.885 33.306 146.885 32.3555C146.885 31.1641 147.308 30.2266 148.154 29.543C149.001 28.8594 150.137 28.5176 151.562 28.5176C152.93 28.5176 154.29 28.8171 155.645 29.416L154.902 31.3203C153.633 30.7865 152.5 30.5195 151.504 30.5195C150.749 30.5195 150.176 30.6855 149.785 31.0176C149.395 31.3431 149.199 31.776 149.199 32.3164C149.199 32.6875 149.277 33.0065 149.434 33.2734C149.59 33.5339 149.847 33.7812 150.205 34.0156C150.563 34.25 151.208 34.5592 152.139 34.9434C153.187 35.3796 153.955 35.7865 154.443 36.1641C154.932 36.5417 155.29 36.9681 155.518 37.4434C155.745 37.9186 155.859 38.4785 155.859 39.123ZM167.48 43L166.055 39.0352H160.596L159.199 43H156.738L162.08 28.6641H164.619L169.961 43H167.48ZM165.439 37.0234L164.102 33.1367C164.004 32.8763 163.867 32.4661 163.691 31.9062C163.522 31.3464 163.405 30.9362 163.34 30.6758C163.164 31.4766 162.907 32.3522 162.568 33.3027L161.279 37.0234H165.439ZM171.846 43V28.7227H174.18V40.998H180.225V43H171.846Z" fill="#BBBBBB"/>
<mask id="path-5-outside-1" maskUnits="userSpaceOnUse" x="43" y="27" width="29" height="16" fill="black">
<rect fill="white" x="43" y="27" width="29" height="16"/>
<path d="M71 41.5C71 37.9196 69.5777 34.4858 67.0459 31.9541C64.5142 29.4223 61.0804 28 57.5 28C53.9196 28 50.4858 29.4223 47.9541 31.9541C45.4223 34.4858 44 37.9196 44 41.5L57.5 41.5H71Z"/>
</mask>
<path d="M71 41.5C71 37.9196 69.5777 34.4858 67.0459 31.9541C64.5142 29.4223 61.0804 28 57.5 28C53.9196 28 50.4858 29.4223 47.9541 31.9541C45.4223 34.4858 44 37.9196 44 41.5L57.5 41.5H71Z" fill="#BBBBBB"/>
<path d="M71 41.5C71 37.9196 69.5777 34.4858 67.0459 31.9541C64.5142 29.4223 61.0804 28 57.5 28C53.9196 28 50.4858 29.4223 47.9541 31.9541C45.4223 34.4858 44 37.9196 44 41.5L57.5 41.5H71Z" stroke="#BBBBBB" stroke-width="2" stroke-linecap="round" mask="url(#path-5-outside-1)"/>
<circle cx="44.5" cy="37.5" r="2.5" fill="#BBBBBB"/>
<circle cx="49.5" cy="30.5" r="2.5" fill="#BBBBBB"/>
<circle cx="70" cy="37.5" r="2.5" fill="#BBBBBB"/>
<circle cx="56.5" cy="28.5" r="2.5" fill="#BBBBBB"/>
<circle cx="65" cy="30.5" r="2.5" fill="#BBBBBB"/>
<defs>
<filter id="filter0_b" x="57" y="-3" width="78" height="67.428" filterUnits="userSpaceOnUse" color-interpolation-filters="sRGB">
<feFlood flood-opacity="0" result="BackgroundImageFix"/>
<feGaussianBlur in="BackgroundImage" stdDeviation="2"/>
<feComposite in2="SourceAlpha" operator="in" result="effect1_backgroundBlur"/>
<feBlend mode="normal" in="SourceGraphic" in2="effect1_backgroundBlur" result="shape"/>
</filter>
<filter id="filter1_b" x="57" y="1.57178" width="78" height="67.428" filterUnits="userSpaceOnUse" color-interpolation-filters="sRGB">
<feFlood flood-opacity="0" result="BackgroundImageFix"/>
<feGaussianBlur in="BackgroundImage" stdDeviation="2"/>
<feComposite in2="SourceAlpha" operator="in" result="effect1_backgroundBlur"/>
<feBlend mode="normal" in="SourceGraphic" in2="effect1_backgroundBlur" result="shape"/>
</filter>
<linearGradient id="paint0_linear" x1="96" y1="60.4282" x2="96" y2="1.00022" gradientUnits="userSpaceOnUse">
<stop stop-color="white"/>
<stop offset="1" stop-color="white" stop-opacity="0"/>
</linearGradient>
<linearGradient id="paint1_linear" x1="96" y1="60.4282" x2="96" y2="1.00022" gradientUnits="userSpaceOnUse">
<stop stop-color="white"/>
<stop offset="1" stop-color="white" stop-opacity="0"/>
</linearGradient>
<linearGradient id="paint2_linear" x1="96" y1="60.4282" x2="96" y2="1.00022" gradientUnits="userSpaceOnUse">
<stop stop-color="white"/>
<stop offset="1" stop-color="white" stop-opacity="0"/>
</linearGradient>
<linearGradient id="paint3_linear" x1="96" y1="60.4282" x2="96" y2="1.00022" gradientUnits="userSpaceOnUse">
<stop stop-color="white"/>
<stop offset="1" stop-color="white" stop-opacity="0"/>
</linearGradient>
<linearGradient id="paint4_linear" x1="96" y1="5.57178" x2="96" y2="64.9998" gradientUnits="userSpaceOnUse">
<stop stop-color="white"/>
<stop offset="1" stop-color="white" stop-opacity="0"/>
</linearGradient>
<linearGradient id="paint5_linear" x1="96" y1="5.57178" x2="96" y2="64.9998" gradientUnits="userSpaceOnUse">
<stop stop-color="white"/>
<stop offset="1" stop-color="white" stop-opacity="0"/>
</linearGradient>
<linearGradient id="paint6_linear" x1="96" y1="5.57178" x2="96" y2="64.9998" gradientUnits="userSpaceOnUse">
<stop stop-color="white"/>
<stop offset="1" stop-color="white" stop-opacity="0"/>
</linearGradient>
<linearGradient id="paint7_linear" x1="96" y1="5.57178" x2="96" y2="64.9998" gradientUnits="userSpaceOnUse">
<stop stop-color="white"/>
<stop offset="1" stop-color="white" stop-opacity="0"/>
</linearGradient>
</defs>
</svg>
