<svg width="193" height="72" viewBox="0 0 193 72" fill="none" xmlns="http://www.w3.org/2000/svg">
<path d="M62.7207 36.4932C60.3086 35.7998 58.5508 34.9502 57.4473 33.9443C56.3535 32.9287 55.8066 31.6787 55.8066 30.1943C55.8066 28.5146 56.4756 27.1279 57.8135 26.0342C59.1611 24.9307 60.9092 24.3789 63.0576 24.3789C64.5225 24.3789 65.8262 24.6621 66.9688 25.2285C68.1211 25.7949 69.0098 26.5762 69.6348 27.5723C70.2695 28.5684 70.5869 29.6572 70.5869 30.8389H67.7598C67.7598 29.5498 67.3496 28.5391 66.5293 27.8066C65.709 27.0645 64.5518 26.6934 63.0576 26.6934C61.6709 26.6934 60.5869 27.001 59.8057 27.6162C59.0342 28.2217 58.6484 29.0664 58.6484 30.1504C58.6484 31.0195 59.0146 31.7568 59.7471 32.3623C60.4893 32.958 61.7441 33.5049 63.5117 34.0029C65.2891 34.501 66.6758 35.0527 67.6719 35.6582C68.6777 36.2539 69.4199 36.9521 69.8984 37.7529C70.3867 38.5537 70.6309 39.4961 70.6309 40.5801C70.6309 42.3086 69.957 43.6953 68.6094 44.7402C67.2617 45.7754 65.46 46.293 63.2041 46.293C61.7393 46.293 60.3721 46.0146 59.1025 45.458C57.833 44.8916 56.8516 44.1201 56.1582 43.1436C55.4746 42.167 55.1328 41.0586 55.1328 39.8184H57.96C57.96 41.1074 58.4336 42.1279 59.3809 42.8799C60.3379 43.6221 61.6123 43.9932 63.2041 43.9932C64.6885 43.9932 65.8262 43.6904 66.6172 43.085C67.4082 42.4795 67.8037 41.6543 67.8037 40.6094C67.8037 39.5645 67.4375 38.7588 66.7051 38.1924C65.9727 37.6162 64.6445 37.0498 62.7207 36.4932ZM76.7686 46H74.0586V30.1504H76.7686V46ZM73.8389 25.9463C73.8389 25.5068 73.9707 25.1357 74.2344 24.833C74.5078 24.5303 74.9082 24.3789 75.4355 24.3789C75.9629 24.3789 76.3633 24.5303 76.6367 24.833C76.9102 25.1357 77.0469 25.5068 77.0469 25.9463C77.0469 26.3857 76.9102 26.752 76.6367 27.0449C76.3633 27.3379 75.9629 27.4844 75.4355 27.4844C74.9082 27.4844 74.5078 27.3379 74.2344 27.0449C73.9707 26.752 73.8389 26.3857 73.8389 25.9463ZM83.668 30.1504L83.7412 31.9082C84.9033 30.541 86.4707 29.8574 88.4434 29.8574C90.6602 29.8574 92.1689 30.707 92.9697 32.4062C93.4971 31.6445 94.1807 31.0293 95.0205 30.5605C95.8701 30.0918 96.8711 29.8574 98.0234 29.8574C101.5 29.8574 103.268 31.6982 103.326 35.3799V46H100.616V35.541C100.616 34.4082 100.357 33.5635 99.8398 33.0068C99.3223 32.4404 98.4531 32.1572 97.2324 32.1572C96.2266 32.1572 95.3916 32.46 94.7275 33.0654C94.0635 33.6611 93.6777 34.4668 93.5703 35.4824V46H90.8457V35.6143C90.8457 33.3096 89.7178 32.1572 87.4619 32.1572C85.6846 32.1572 84.4688 32.9141 83.8145 34.4277V46H81.1045V30.1504H83.668ZM106.71 37.9287C106.71 36.376 107.013 34.9795 107.618 33.7393C108.233 32.499 109.083 31.542 110.167 30.8682C111.261 30.1943 112.506 29.8574 113.902 29.8574C116.061 29.8574 117.804 30.6045 119.132 32.0986C120.47 33.5928 121.139 35.5801 121.139 38.0605V38.251C121.139 39.7939 120.841 41.1807 120.245 42.4111C119.659 43.6318 118.814 44.584 117.711 45.2676C116.617 45.9512 115.357 46.293 113.932 46.293C111.783 46.293 110.04 45.5459 108.702 44.0518C107.374 42.5576 106.71 40.5801 106.71 38.1191V37.9287ZM109.435 38.251C109.435 40.0088 109.84 41.4199 110.65 42.4844C111.471 43.5488 112.564 44.0811 113.932 44.0811C115.309 44.0811 116.402 43.5439 117.213 42.4697C118.023 41.3857 118.429 39.8721 118.429 37.9287C118.429 36.1904 118.014 34.7842 117.184 33.71C116.363 32.626 115.27 32.084 113.902 32.084C112.564 32.084 111.485 32.6162 110.665 33.6807C109.845 34.7451 109.435 36.2686 109.435 38.251ZM127.101 30.1504L127.188 32.1426C128.399 30.6191 129.981 29.8574 131.935 29.8574C135.284 29.8574 136.974 31.7471 137.003 35.5264V46H134.293V35.5117C134.283 34.3691 134.02 33.5244 133.502 32.9775C132.994 32.4307 132.198 32.1572 131.114 32.1572C130.235 32.1572 129.464 32.3916 128.8 32.8604C128.136 33.3291 127.618 33.9443 127.247 34.7061V46H124.537V30.1504H127.101Z" fill="#BBBBBB"/>
<path opacity="0.7" d="M46.8365 34C46.8365 39.7779 43.2542 44 39.3365 44C35.4189 44 31.8365 39.7779 31.8365 34C31.8365 28.2221 35.4189 24 39.3365 24C43.2542 24 46.8365 28.2221 46.8365 34Z" fill="white" stroke="#BBBBBB" stroke-width="2"/>
<ellipse cx="39.3365" cy="34.0001" rx="6" ry="7.76471" fill="#BBBBBB"/>
<path opacity="0.7" d="M26.8365 34C26.8365 39.7779 23.2542 44 19.3365 44C15.4189 44 11.8365 39.7779 11.8365 34C11.8365 28.2221 15.4189 24 19.3365 24C23.2542 24 26.8365 28.2221 26.8365 34Z" fill="white" stroke="#BBBBBB" stroke-width="2"/>
<ellipse cx="19.3365" cy="34.0001" rx="6" ry="7.76471" fill="#BBBBBB"/>
<line x1="27.8365" y1="33.6475" x2="30.8365" y2="33.6475" stroke="#BBBBBB" stroke-width="2"/>
<path d="M12.5519 29.8003C12.3093 30.2965 11.7663 30.4151 11.3389 30.0652L10.7737 29.6025C10.3464 29.2526 10.1966 28.5668 10.4392 28.0706L10.8974 27.1333C11.14 26.6371 11.683 26.5185 12.1103 26.8684L12.6755 27.3312C13.1029 27.681 13.2527 28.3669 13.0101 28.8631L12.5519 29.8003Z" fill="#C4C4C4"/>
<rect width="2.80565" height="2.97413" rx="1" transform="matrix(0.699044 -0.715079 0.521259 0.853399 44.8365 27.5942)" fill="#C4C4C4"/>
</svg>
