<svg width="337" height="48" viewBox="0 0 337 48" fill="none" xmlns="http://www.w3.org/2000/svg">
<path d="M124.877 18.3242H120.307V31H118.441V18.3242H113.881V16.7812H124.877V18.3242ZM130.209 26.5176L130.482 28.3926L130.883 26.7031L133.695 16.7812H135.277L138.021 26.7031L138.412 28.4219L138.715 26.5078L140.922 16.7812H142.807L139.359 31H137.65L134.721 20.6387L134.496 19.5547L134.271 20.6387L131.234 31H129.525L126.088 16.7812H127.963L130.209 26.5176ZM155.834 24.3496C155.834 25.7428 155.6 26.9603 155.131 28.002C154.662 29.0371 153.998 29.8281 153.139 30.375C152.279 30.9219 151.277 31.1953 150.131 31.1953C149.011 31.1953 148.018 30.9219 147.152 30.375C146.286 29.8216 145.613 29.0371 145.131 28.0215C144.656 26.9993 144.411 25.8177 144.398 24.4766V23.4512C144.398 22.084 144.636 20.8763 145.111 19.8281C145.587 18.7799 146.257 17.9792 147.123 17.4258C147.995 16.8659 148.992 16.5859 150.111 16.5859C151.251 16.5859 152.253 16.8626 153.119 17.416C153.992 17.9629 154.662 18.7604 155.131 19.8086C155.6 20.8503 155.834 22.0645 155.834 23.4512V24.3496ZM153.969 23.4316C153.969 21.7454 153.63 20.4531 152.953 19.5547C152.276 18.6497 151.329 18.1973 150.111 18.1973C148.926 18.1973 147.992 18.6497 147.309 19.5547C146.632 20.4531 146.283 21.7031 146.264 23.3047V24.3496C146.264 25.9837 146.605 27.2695 147.289 28.207C147.979 29.138 148.926 29.6035 150.131 29.6035C151.342 29.6035 152.279 29.1641 152.943 28.2852C153.607 27.3997 153.949 26.1335 153.969 24.4863V23.4316ZM167.797 24.6621C166.189 24.1999 165.017 23.6335 164.281 22.9629C163.552 22.2858 163.188 21.4525 163.188 20.4629C163.188 19.3431 163.633 18.4186 164.525 17.6895C165.424 16.9538 166.589 16.5859 168.021 16.5859C168.998 16.5859 169.867 16.7747 170.629 17.1523C171.397 17.5299 171.99 18.0508 172.406 18.7148C172.829 19.3789 173.041 20.1048 173.041 20.8926H171.156C171.156 20.0332 170.883 19.3594 170.336 18.8711C169.789 18.3763 169.018 18.1289 168.021 18.1289C167.097 18.1289 166.374 18.334 165.854 18.7441C165.339 19.1478 165.082 19.7109 165.082 20.4336C165.082 21.013 165.326 21.5046 165.814 21.9082C166.309 22.3053 167.146 22.6699 168.324 23.002C169.509 23.334 170.434 23.7018 171.098 24.1055C171.768 24.5026 172.263 24.9681 172.582 25.502C172.908 26.0358 173.07 26.6641 173.07 27.3867C173.07 28.5391 172.621 29.4635 171.723 30.1602C170.824 30.8503 169.623 31.1953 168.119 31.1953C167.143 31.1953 166.231 31.0098 165.385 30.6387C164.538 30.2611 163.884 29.7467 163.422 29.0957C162.966 28.4447 162.738 27.7057 162.738 26.8789H164.623C164.623 27.7383 164.939 28.4186 165.57 28.9199C166.208 29.4147 167.058 29.6621 168.119 29.6621C169.109 29.6621 169.867 29.4603 170.395 29.0566C170.922 28.653 171.186 28.1029 171.186 27.4062C171.186 26.7096 170.941 26.1725 170.453 25.7949C169.965 25.4108 169.079 25.0332 167.797 24.6621ZM177.494 31H175.619V16.7812H177.494V31ZM191.43 29.1348C190.948 29.8249 190.274 30.3424 189.408 30.6875C188.549 31.026 187.546 31.1953 186.4 31.1953C185.242 31.1953 184.213 30.9251 183.314 30.3848C182.416 29.8379 181.719 29.0632 181.225 28.0605C180.736 27.0579 180.486 25.8958 180.473 24.5742V23.334C180.473 21.1921 180.971 19.5319 181.967 18.3535C182.969 17.1751 184.376 16.5859 186.186 16.5859C187.67 16.5859 188.865 16.9668 189.77 17.7285C190.674 18.4837 191.228 19.5579 191.43 20.9512H189.555C189.203 19.0697 188.083 18.1289 186.195 18.1289C184.939 18.1289 183.985 18.5716 183.334 19.457C182.689 20.3359 182.364 21.612 182.357 23.2852V24.4473C182.357 26.0423 182.722 27.3118 183.451 28.2559C184.18 29.1934 185.167 29.6621 186.41 29.6621C187.113 29.6621 187.729 29.584 188.256 29.4277C188.783 29.2715 189.219 29.0078 189.564 28.6367V25.4434H186.273V23.9199H191.43V29.1348ZM196.986 16.7812L201.635 28.3828L206.283 16.7812H208.715V31H206.84V25.4629L207.016 19.4863L202.348 31H200.912L196.254 19.5156L196.439 25.4629V31H194.564V16.7812H196.986ZM220.053 27.2891H214.096L212.758 31H210.824L216.254 16.7812H217.895L223.334 31H221.41L220.053 27.2891ZM214.662 25.7461H219.496L217.074 19.0957L214.662 25.7461Z" fill="#BBBBBB"/>
<rect x="80" y="24.1421" width="20" height="20" transform="rotate(-45 80 24.1421)" fill="#BBBBBB"/>
</svg>
