<svg width="237" height="119" viewBox="0 0 237 119" fill="none" xmlns="http://www.w3.org/2000/svg">
<path d="M104.933 69.3857H116.827V74H97.4473V70.8384L109.308 53.7485H97.3789V49.1172H116.708V52.1934L104.933 69.3857ZM125.372 74H119.596V55.5088H125.372V74ZM119.254 50.7407C119.254 49.9204 119.55 49.2482 120.143 48.7241C120.735 48.2 121.504 47.938 122.45 47.938C123.395 47.938 124.164 48.2 124.757 48.7241C125.349 49.2482 125.646 49.9204 125.646 50.7407C125.646 51.561 125.349 52.2332 124.757 52.7573C124.164 53.2814 123.395 53.5435 122.45 53.5435C121.504 53.5435 120.735 53.2814 120.143 52.7573C119.55 52.2332 119.254 51.561 119.254 50.7407ZM135.011 74H129.234V47.75H135.011V74ZM144.649 74H138.873V47.75H144.649V74ZM147.486 64.5835C147.486 62.7378 147.845 61.0972 148.563 59.6616C149.281 58.2147 150.312 57.1038 151.656 56.3291C153.001 55.5544 154.579 55.167 156.39 55.167C159.159 55.167 161.34 56.0272 162.936 57.7476C164.531 59.4565 165.328 61.7865 165.328 64.7373V64.9424C165.328 67.8249 164.525 70.1149 162.918 71.8125C161.323 73.4987 159.159 74.3418 156.424 74.3418C153.792 74.3418 151.679 73.5557 150.084 71.9834C148.489 70.3997 147.629 68.2578 147.503 65.5576L147.486 64.5835ZM153.246 64.9424C153.246 66.6514 153.513 67.9046 154.049 68.7021C154.584 69.4997 155.376 69.8984 156.424 69.8984C158.475 69.8984 159.523 68.3205 159.569 65.1646V64.5835C159.569 61.2681 158.509 59.6104 156.39 59.6104C154.465 59.6104 153.422 61.0402 153.263 63.8999L153.246 64.9424ZM183.836 66.4121L185.699 55.5088H191.219L186.861 74H181.991L178.932 63.0283L175.855 74H170.985L166.627 55.5088H172.147L173.976 66.6685L176.915 55.5088H180.931L183.836 66.4121Z" fill="#BBBBBB"/>
<path d="M60.0372 48.0005L74 59.0325V73.0005H49V59.0325L60.0372 48.0005Z" fill="#BBBBBB"/>
<path d="M49 59.0325H74M49 59.0325L60.0372 48.0005L74 59.0325M49 59.0325V73.0005H74V59.0325" stroke="#BBBBBB"/>
<path d="M71.2976 63.0526L63.063 71.2872L61.8926 70.1167L59.2409 55.0769L53.4301 60.8877L52.0939 59.5516L59.7899 51.8556L61.1261 53.1917L63.6949 67.983L69.9614 61.7164L71.2976 63.0526Z" fill="#FFF7F7"/>
<path d="M71.2976 63.0526L72.0047 63.7597L72.7118 63.0526L72.0047 62.3455L71.2976 63.0526ZM63.063 71.2872L62.3559 71.9943L63.063 72.7014L63.7701 71.9943L63.063 71.2872ZM61.8926 70.1167L60.9077 70.2904L60.9625 70.6009L61.1855 70.8238L61.8926 70.1167ZM59.2409 55.0769L60.2257 54.9033L59.8922 53.0114L58.5338 54.3698L59.2409 55.0769ZM53.4301 60.8877L52.723 61.5949L53.4301 62.302L54.1372 61.5949L53.4301 60.8877ZM52.0939 59.5516L51.3868 58.8445L50.6797 59.5516L51.3868 60.2587L52.0939 59.5516ZM59.7899 51.8556L60.497 51.1485L59.7899 50.4413L59.0828 51.1485L59.7899 51.8556ZM61.1261 53.1917L62.1113 53.0206L62.0571 52.7086L61.8332 52.4846L61.1261 53.1917ZM63.6949 67.983L62.7096 68.1541L63.0393 70.0527L64.402 68.6901L63.6949 67.983ZM69.9614 61.7164L70.6686 61.0093L69.9614 60.3022L69.2543 61.0093L69.9614 61.7164ZM70.5905 62.3455L62.3559 70.5801L63.7701 71.9943L72.0047 63.7597L70.5905 62.3455ZM63.7701 70.5801L62.5997 69.4096L61.1855 70.8238L62.3559 71.9943L63.7701 70.5801ZM62.8774 69.9431L60.2257 54.9033L58.2561 55.2505L60.9077 70.2904L62.8774 69.9431ZM58.5338 54.3698L52.723 60.1806L54.1372 61.5949L59.948 55.784L58.5338 54.3698ZM54.1372 60.1806L52.801 58.8445L51.3868 60.2587L52.723 61.5949L54.1372 60.1806ZM52.801 60.2587L60.497 52.5627L59.0828 51.1485L51.3868 58.8445L52.801 60.2587ZM59.0828 52.5627L60.419 53.8989L61.8332 52.4846L60.497 51.1485L59.0828 52.5627ZM60.1408 53.3629L62.7096 68.1541L64.6801 67.8119L62.1113 53.0206L60.1408 53.3629ZM64.402 68.6901L70.6686 62.4235L69.2543 61.0093L62.9877 67.2759L64.402 68.6901ZM69.2543 62.4235L70.5905 63.7597L72.0047 62.3455L70.6686 61.0093L69.2543 62.4235Z" fill="white"/>
</svg>
